<svg width="120" height="120" viewBox="0 0 120 120" fill="none" xmlns="http://www.w3.org/2000/svg">
<rect width="120" height="120" rx="18" fill="#404040"/>
<path d="M54.6535 7.18937C54.8026 7.16807 54.953 7.15238 55.1058 7.14453C55.3797 8.01335 55.4518 8.95056 55.9555 9.74651C57.0607 11.5223 58.7062 12.9494 59.8383 14.7094C60.5193 15.7845 60.6648 17.1421 60.177 18.308C59.3896 20.2161 58.1035 21.8965 56.9421 23.623C56.3431 24.5164 55.6034 25.3202 54.9909 26.2059C54.5447 26.9043 53.9517 27.5366 53.1828 27.9469C53.0263 27.0669 53.3759 26.1353 52.9676 25.29C51.893 23.2048 49.5921 21.8943 48.6153 19.7542C48.273 18.7553 48.3855 17.6343 48.8794 16.6926C50.2988 14.0177 51.9688 11.4628 53.5923 8.89002C53.9554 8.32837 54.1584 7.67143 54.6535 7.18937Z" fill="#A0A0A0"/>
<path d="M62.8055 25.4666C64.7224 25.2435 66.7617 25.2323 68.5576 25.9688C71.6457 27.1829 73.9857 29.8757 74.5615 32.9138C75.0273 34.5247 75.1435 36.2041 75.0469 37.8643C75.0188 39.5852 74.5664 41.2813 73.9197 42.8901C72.9759 45.1837 71.5284 47.3048 69.6811 49.0783C68.5099 50.1388 67.3949 51.2621 66.0721 52.1691C64.4021 53.3417 62.4607 54.2621 60.3567 54.5188C59.3065 54.6443 58.2661 54.9212 57.1989 54.8663C54.3332 54.6634 51.5177 54.0379 48.8158 53.1522C46.7937 52.4695 44.7411 51.8731 42.7006 51.2408C41.2287 50.9067 39.7689 50.4292 38.2371 50.4146C37.5451 50.4045 37.1233 51.0065 36.9106 51.5345C36.281 53.1859 35.8042 54.8809 35.3225 56.5714C35.0756 57.4907 34.7614 58.3954 34.6049 59.3337C34.4215 60.3898 34.3041 61.4548 34.1745 62.5164C33.9692 65.0567 34.3885 67.6329 35.3616 70.0163C36.012 71.5757 37.1564 73.0062 38.7567 73.8436C40.9609 75.1081 43.7263 75.0555 46.1849 74.5622C48.6386 73.9882 51.0458 73.2248 53.3173 72.1945C55.3455 71.2842 57.2368 70.1441 59.0975 68.976C62.9412 66.5511 66.8106 64.1621 70.6995 61.7978C72.8769 60.5064 75.1533 59.3539 77.5152 58.3707C78.5972 57.9167 79.7549 57.6488 80.9041 57.3775C81.7367 57.2093 82.6683 57.243 83.4055 57.6735C83.8419 57.9358 84.2087 58.2811 84.6231 58.5703C85.2589 59.0479 86.0657 59.299 86.6526 59.8371C87.2149 60.3606 87.8226 61.0097 87.693 61.8023C86.5633 61.892 85.4471 61.4918 84.3212 61.7037C82.6988 61.8875 81.2636 62.6465 79.8295 63.3113C78.5874 63.883 77.4627 64.6397 76.3171 65.3538C74.6263 66.4099 72.9343 67.4693 71.3523 68.6609C67.3962 71.4524 63.6662 74.5117 59.5718 77.1384C57.6879 78.3469 55.7562 79.496 53.7635 80.5509C51.3954 81.7011 48.9735 82.8345 46.3463 83.395C43.8694 83.9611 41.2568 84.3927 38.7224 83.8838C37.0549 83.5665 35.2834 83.2123 33.9826 82.1338C32.3652 80.756 31.5167 78.8211 30.8773 76.9276C30.5252 75.5487 30.1609 74.1552 30.1609 72.7304C30.1756 71.94 29.925 71.1553 30.0484 70.3661C30.2648 69.1822 30.0692 67.9704 30.3137 66.7899C30.612 65.4222 30.7428 64.0298 31.0546 62.6644C31.4495 61.1902 31.7771 59.6992 32.2466 58.2407C32.7808 56.5165 33.4007 54.8159 34.0254 53.1186C34.3335 52.2744 34.9814 51.5076 34.9215 50.5771C34.1 50.4079 33.2637 50.6141 32.4935 50.8731C31.749 51.1343 30.9825 51.354 30.2856 51.7184C29.4433 52.1321 28.6865 52.6713 27.9029 53.169C27.6669 53.326 27.2476 53.4224 27.0727 53.141C26.9358 52.8776 27.0141 52.5693 27.1278 52.3125C28.0642 50.1265 29.9225 48.3305 32.139 47.1837C32.9483 46.8384 33.6012 46.2678 34.1721 45.6501C35.0805 44.6759 36.16 43.8239 37.4131 43.2443C38.0256 42.9371 38.7371 42.8127 39.3007 42.4181C39.8276 42.0829 40.2164 41.602 40.5294 41.0952C43.4085 36.7758 47.1128 32.87 51.6411 29.9463C52.4798 29.2961 53.4725 28.8566 54.4383 28.3914C57.0253 27.0103 59.8212 25.8601 62.8055 25.4666ZM54.3222 31.8824C52.4309 32.5539 50.7609 33.6279 49.1532 34.7411C47.7253 35.7769 46.4759 36.9967 45.2056 38.1872C44.3229 39.0381 43.6591 40.0527 42.8058 40.926C42.4891 41.232 42.6175 41.6782 42.6309 42.0549C44.2227 42.0874 45.8157 42.1894 47.3928 42.3934C52.0446 43.2017 56.3908 45.0133 60.9753 46.057C62.2113 46.4124 63.5084 46.4943 64.7836 46.6624C65.6858 46.7812 66.5942 46.6232 67.4817 46.4786C68.3901 46.3283 68.9072 45.5638 69.5405 45.029C70.6848 44.0167 71.1885 42.5392 71.279 41.1154C71.2276 39.8139 71.3964 38.4989 71.1665 37.2063C70.7997 35.8207 69.9488 34.5595 68.8779 33.5382C68.0869 32.8678 67.2629 32.2019 66.28 31.7804C64.9902 31.2636 63.6234 30.8959 62.2223 30.7658C59.5413 30.5405 56.8162 30.9665 54.3222 31.8824Z" fill="#A0A0A0"/>
<path d="M85.0968 64.3537C86.2973 63.819 87.6751 63.7282 88.9857 63.8672C89.5945 63.9546 90.0408 64.3795 90.4662 64.7528C91.1728 65.3806 92.0702 65.8179 92.6851 66.5342C93.1045 67.0387 93.5727 67.5925 93.503 68.2685C93.3441 68.3301 93.1925 68.4355 93.0116 68.4142C92.4406 68.4008 91.8734 68.3144 91.3012 68.3335C90.1862 68.3638 89.0921 68.6564 88.0969 69.1104C85.9195 70.0678 83.9842 71.4186 82.1418 72.8357C80.5244 74.1148 78.9131 75.4051 77.4228 76.8098C75.5327 78.5531 73.628 80.2829 71.6365 81.9308C70.1242 83.3086 68.5593 84.6382 66.9492 85.9207C65.3562 87.1908 63.6067 88.2861 61.779 89.2513C60.5369 89.8993 59.2068 90.4307 57.8008 90.693C55.7506 91.0091 53.6161 91.1605 51.583 90.665C50.9252 90.5147 50.287 90.3017 49.6721 90.0428C48.6513 89.6089 47.485 89.6235 46.4531 89.2177C45.0093 88.6695 43.6192 87.8444 42.7745 86.609C42.5507 86.3097 42.5948 85.9341 42.6021 85.5922C43.3833 85.5742 44.0789 85.9229 44.8235 86.0754C47.3383 86.3792 49.8702 85.8691 52.2419 85.1236C53.1148 84.8355 54.0085 84.5922 54.8496 84.229C56.2348 83.6471 57.5258 82.9016 58.8412 82.2021C61.0198 81.044 62.9894 79.59 64.9014 78.0968C68.4199 75.2997 71.969 72.533 75.6415 69.9063C78.5573 67.7505 81.6076 65.6665 85.0968 64.3537Z" fill="#0B9A5C"/>
</svg>
