<svg width="120" height="120" viewBox="0 0 120 120" fill="none" xmlns="http://www.w3.org/2000/svg">
<rect width="120" height="120" rx="18" fill="#404040"/>
<path d="M63.3115 17.497C65.6058 17.1198 68.0467 17.2227 70.2094 18.0749C71.9057 18.7371 73.3619 19.8607 74.4666 21.2125C75.3631 22.3066 76.0535 23.536 76.5984 24.8095C77.3207 26.6638 77.5087 28.6572 77.4853 30.6144C77.3929 34.8804 76.045 39.121 73.6009 42.7454C71.843 45.3569 69.5126 47.6002 66.9814 49.5818C63.8894 52.0014 60.4649 54.0261 56.9692 55.9089C55.4609 56.7023 53.993 57.5585 52.4687 58.3265C50.3762 59.3913 48.2519 60.4022 46.1254 61.4053C45.8173 61.5277 45.8981 61.9019 45.8757 62.1517C45.9671 63.7748 46.5566 65.3451 47.3458 66.786C48.7086 69.2546 50.9254 71.3126 53.6042 72.5685C54.6303 73.0582 55.718 73.4354 56.8311 73.7185C57.3165 73.8439 57.8253 73.8252 58.3235 73.8429C60.0102 73.8762 61.7214 73.6323 63.2627 72.9818C65.1682 72.1884 66.7583 70.8816 68.1423 69.4593C70.3889 67.1514 72.1139 64.4762 73.9897 61.9176C76.2341 58.8084 78.5666 55.6767 81.6895 53.2523C84.9875 50.6574 88.9835 48.9696 93.0272 47.6129C93.0517 47.8196 93.229 48.0547 93.0655 48.2467C91.8439 49.9913 90.1678 51.443 88.2899 52.5774C87.7057 52.9153 87.1204 53.2738 86.4523 53.4531C84.979 53.9086 83.5302 54.4973 82.2811 55.3603C81.7808 55.711 81.3379 56.1322 81.0001 56.623C82.2216 56.6749 83.4336 56.479 84.654 56.477C85.1989 56.4712 85.8394 56.6367 86.0593 57.15C86.4512 58.0639 86.242 59.0807 86.0497 60.0152C85.9541 60.6128 85.5909 61.1241 85.2605 61.6296C84.2716 63.0882 82.997 64.3978 81.4526 65.3706C80.3479 66.0925 79.0531 66.4883 77.8603 67.0603C76.9744 67.4825 76.0779 67.9214 75.344 68.5542C74.8777 68.9431 74.6748 69.5073 74.3487 69.9883C72.6821 72.5969 70.6523 75.0389 68.1477 77.0108C66.5172 78.2882 64.6584 79.3451 62.6126 79.9476C59.0883 81.0133 55.1954 80.8674 51.7167 79.7183C48.0638 78.5164 44.7753 76.3094 42.5245 73.3844C41.6769 72.2589 41.0014 71.0335 40.3588 69.8021C39.4782 68.0801 38.7325 66.2982 38.1685 64.4664C36.5264 64.9836 34.9267 65.6057 33.3473 66.2649C31.2378 67.1514 29.2069 68.1849 27.1462 69.1615C23.4976 70.9316 19.8533 72.7115 16.2949 74.6314C14.7803 75.4425 13.3198 76.3506 12.0026 77.4183C11.9495 75.8089 12.7026 74.2866 13.6076 72.9485C15.3167 70.4957 17.7172 68.5307 20.2431 66.8125C23.2087 64.8298 26.3921 63.1254 29.738 61.7491C32.4306 60.6275 35.1509 59.5627 37.8424 58.4362C37.8945 53.3493 38.6008 48.2623 39.9976 43.34C40.7656 40.5786 41.9913 37.9524 43.2861 35.3722C45.5964 30.8583 48.5471 26.5433 52.5346 23.1275C55.582 20.5091 59.2752 18.4902 63.3115 17.497Z" fill="#A0A0A0"/>
<path d="M102.452 43.1289C103.266 42.9222 104.272 43.1612 104.748 43.8361C106.065 45.4544 107.395 47.0648 108.747 48.6576C109.168 49.1317 109 49.8625 108.458 50.1896C106.312 51.5787 104.15 52.9501 102.01 54.3469C101.644 54.6075 101.134 54.5331 100.728 54.4028C100.518 54.2656 100.417 54.0266 100.261 53.8434C98.8862 52.0136 97.552 50.1563 96.0947 48.3823C95.8069 48.0503 95.8993 47.5311 96.2774 47.2931C97.9812 46.0882 99.6934 44.8931 101.396 43.6873C101.717 43.4571 102.053 43.2259 102.452 43.1289Z" fill="#0B9A5C"/>
</svg>
