<svg width="24" height="24" viewBox="0 0 24 24" fill="none" xmlns="http://www.w3.org/2000/svg">
<path fill-rule="evenodd" clip-rule="evenodd" d="M2.00012 6C2.00012 4.93913 2.42155 3.92172 3.1717 3.17157C3.92184 2.42143 4.93926 2 6.00012 2H18.0001C19.061 2 20.0784 2.42143 20.8286 3.17157C21.5787 3.92172 22.0001 4.93913 22.0001 6V18C22.0001 19.0609 21.5787 20.0783 20.8286 20.8284C20.0784 21.5786 19.061 22 18.0001 22H6.00012C4.93926 22 3.92184 21.5786 3.1717 20.8284C2.42155 20.0783 2.00012 19.0609 2.00012 18V6ZM6.00012 4C5.46969 4 4.96098 4.21071 4.58591 4.58579C4.21084 4.96086 4.00012 5.46957 4.00012 6V18C4.00012 18.5304 4.21084 19.0391 4.58591 19.4142C4.96098 19.7893 5.46969 20 6.00012 20H18.0001C18.5306 20 19.0393 19.7893 19.4143 19.4142C19.7894 19.0391 20.0001 18.5304 20.0001 18V6C20.0001 5.46957 19.7894 4.96086 19.4143 4.58579C19.0393 4.21071 18.5306 4 18.0001 4H6.00012ZM12.0001 9C11.2045 9 10.4414 9.31607 9.8788 9.87868C9.31619 10.4413 9.00012 11.2044 9.00012 12C9.00012 12.7957 9.31619 13.5587 9.8788 14.1213C10.4414 14.6839 11.2045 15 12.0001 15C12.7958 15 13.5588 14.6839 14.1214 14.1213C14.6841 13.5587 15.0001 12.7957 15.0001 12C15.0001 11.2044 14.6841 10.4413 14.1214 9.87868C13.5588 9.31607 12.7958 9 12.0001 9ZM7.00012 12C7.00012 10.6739 7.52691 9.40215 8.46459 8.46447C9.40227 7.52678 10.674 7 12.0001 7C13.3262 7 14.598 7.52678 15.5357 8.46447C16.4733 9.40215 17.0001 10.6739 17.0001 12C17.0001 13.3261 16.4733 14.5979 15.5357 15.5355C14.598 16.4732 13.3262 17 12.0001 17C10.674 17 9.40227 16.4732 8.46459 15.5355C7.52691 14.5979 7.00012 13.3261 7.00012 12ZM17.5001 8C17.8979 8 18.2795 7.84197 18.5608 7.56066C18.8421 7.27936 19.0001 6.89783 19.0001 6.5C19.0001 6.10218 18.8421 5.72064 18.5608 5.43934C18.2795 5.15804 17.8979 5 17.5001 5C17.1023 5 16.7208 5.15804 16.4395 5.43934C16.1582 5.72064 16.0001 6.10218 16.0001 6.5C16.0001 6.89783 16.1582 7.27936 16.4395 7.56066C16.7208 7.84197 17.1023 8 17.5001 8Z" fill="#979797"/>
</svg>
