<svg width="24" height="24" viewBox="0 0 24 24" fill="none" xmlns="http://www.w3.org/2000/svg">
<path fill-rule="evenodd" clip-rule="evenodd" d="M15.0336 5.0004C14.5768 5.00021 14.1256 5.10145 13.7126 5.29681C13.2997 5.49218 12.9352 5.77679 12.6456 6.13012C12.356 6.48344 12.1485 6.89665 12.038 7.33992C11.9275 7.7832 11.9168 8.24548 12.0066 8.6934C12.0376 8.8486 12.0312 9.00892 11.9881 9.16119C11.9451 9.31347 11.8664 9.45334 11.7588 9.56931C11.6511 9.68528 11.5174 9.77404 11.3688 9.8283C11.2201 9.88255 11.0607 9.90075 10.9036 9.8814C8.75336 9.61726 6.72635 8.73335 5.06963 7.3374C5.10063 7.9394 5.30963 8.5794 5.76263 9.2494L6.44163 10.2534L5.32663 10.7284L5.11163 10.8204C5.27163 11.0034 5.46363 11.1904 5.67863 11.3754C5.96605 11.6214 6.2701 11.8473 6.58863 12.0514L6.59963 12.0584H6.60063L8.14863 12.9974L6.52863 13.8074C6.44863 13.8474 6.36863 13.8834 6.28863 13.9154C6.63697 14.2048 7.02072 14.4488 7.43063 14.6414L8.82063 15.2984L7.65663 16.3024C7.02163 16.8504 6.38263 17.2594 5.55363 17.4754C6.82507 18.1526 8.24407 18.5054 9.68463 18.5024C14.4906 18.5024 18.3606 14.6674 18.3606 9.9684V9.4484L18.7856 9.1494C19.4496 8.6834 19.9186 8.0534 20.2546 7.3324H18.0946L17.8226 6.7624C17.5722 6.23507 17.1773 5.7896 16.6838 5.47771C16.1903 5.16582 15.6184 5.00031 15.0346 5.0004H15.0336ZM3.75363 12.3004C3.65927 12.4085 3.58926 12.5356 3.54837 12.6731C3.50747 12.8106 3.49665 12.9553 3.51663 13.0974C3.62963 13.8984 4.10863 14.5884 4.63863 15.1154C4.78263 15.2584 4.93663 15.3954 5.09863 15.5264L5.02363 15.5464C4.54263 15.6664 3.89363 15.6914 2.81263 15.5864C2.60849 15.5664 2.40313 15.6096 2.22439 15.7102C2.04564 15.8109 1.90217 15.964 1.81342 16.1489C1.72467 16.3339 1.69493 16.5416 1.72824 16.744C1.76155 16.9464 1.8563 17.1337 1.99963 17.2804C3.0004 18.3033 4.19592 19.1154 5.51565 19.6688C6.83538 20.2222 8.25258 20.5056 9.68363 20.5024C15.3966 20.5024 20.0826 16.0664 20.3476 10.4684C21.6376 9.3854 22.2826 7.9184 22.6306 6.5854C22.6693 6.43745 22.6736 6.2826 22.643 6.13275C22.6125 5.98291 22.548 5.84206 22.4545 5.72104C22.361 5.60002 22.241 5.50206 22.1037 5.43468C21.9665 5.36731 21.8156 5.33232 21.6626 5.3324H19.3096C18.7341 4.43872 17.893 3.74784 16.9045 3.35683C15.9161 2.96582 14.8299 2.89435 13.7988 3.15244C12.7676 3.41054 11.8432 3.98523 11.1555 4.79578C10.4678 5.60632 10.0513 6.61196 9.96463 7.6714C8.12129 7.19155 6.47196 6.1522 5.24363 4.6964C5.13485 4.56778 4.99534 4.46873 4.83805 4.40843C4.68076 4.34813 4.51079 4.32855 4.3439 4.35149C4.17702 4.37443 4.01864 4.43916 3.88346 4.53966C3.74827 4.64017 3.64067 4.7732 3.57063 4.9264C2.96463 6.2484 2.84863 7.7724 3.52463 9.3224L3.29063 9.4224C3.0667 9.51782 2.88527 9.69163 2.78033 9.91125C2.6754 10.1309 2.65417 10.3812 2.72063 10.6154C2.90663 11.2674 3.32463 11.8434 3.75263 12.3004H3.75363Z" fill="#25B476"/>
</svg>
