<svg width="45" height="45" viewBox="0 0 45 45" fill="none" xmlns="http://www.w3.org/2000/svg">
<rect width="45" height="45" rx="8" fill="#232323"/>
<path d="M12.0745 24H32.9255C34.0718 24 35 23.3274 35 22.501C35 21.6746 34.0718 21 32.9255 21H12.0745C10.9309 21 10 21.6746 10 22.501C10 23.3274 10.9309 24 12.0745 24Z" fill="#0CAC67"/>
<path d="M11.8597 32.9878H32.6886C33.4857 33.0637 34.2561 32.779 34.6812 32.3044C35.1063 31.8109 35.1063 31.1845 34.6812 30.7099C34.2561 30.2164 33.4857 29.9507 32.6886 30.0076H11.8597C10.7997 30.0835 10 30.7289 10 31.5072C10 32.2646 10.7997 32.9119 11.8597 32.9878Z" fill="#0CAC67"/>
<path d="M33.1143 12.0191V12H25.8881C24.8462 12 24 12.6688 24 13.4885C24 14.3312 24.8462 15 25.8881 15H33.1143C34.1563 15 35 14.3312 35 13.5096C35 12.6879 34.1563 12.0191 33.1143 12.0191Z" fill="#0CAC67"/>
</svg>
