<svg width="83" height="65" viewBox="0 0 83 65" fill="none" xmlns="http://www.w3.org/2000/svg">
<g style="mix-blend-mode:multiply" filter="url(#filter0_b_3055_22642)">
<path d="M83 10C83 4.47715 78.5228 0 73 0H49.5C31.5507 0 17 14.5507 17 32.5C17 50.4493 31.7988 65 49.7481 65C67.9735 65 83 50.2254 83 32V10Z" fill="#0CAC67" fill-opacity="0.21"/>
</g>
<path fill-rule="evenodd" clip-rule="evenodd" d="M4.5 33V24C4.5 17.636 4.5 14.4541 6.47703 12.477C8.45406 10.5 11.636 10.5 18 10.5H36C42.364 10.5 45.5459 10.5 47.523 12.477C49.5 14.4541 49.5 17.636 49.5 24V33C49.5 39.364 49.5 42.5459 47.523 44.523C46.0686 45.9773 43.9622 46.3618 40.4167 46.4635C40.4084 44.8079 39.8333 43.1546 38.6913 41.8145C38.6267 41.7387 38.5876 41.6445 38.5797 41.5452C38.2976 38.0094 35.4898 35.2016 31.954 34.9195C31.8547 34.9115 31.7605 34.8725 31.6847 34.8079C28.985 32.5072 25.0142 32.5072 22.3145 34.8079C22.2387 34.8725 22.1445 34.9115 22.0452 34.9195C18.5094 35.2016 15.7016 38.0094 15.4195 41.5452C15.4115 41.6445 15.3725 41.7387 15.3079 41.8145C14.1659 43.1546 13.5907 44.8079 13.5825 46.4634C10.0375 46.3618 7.93128 45.9772 6.47703 44.523C4.5 42.5459 4.5 39.364 4.5 33ZM18.5625 19.5C18.5625 18.568 19.318 17.8125 20.25 17.8125H33.75C34.682 17.8125 35.4375 18.568 35.4375 19.5C35.4375 20.432 34.682 21.1875 33.75 21.1875H20.25C19.318 21.1875 18.5625 20.432 18.5625 19.5ZM15.75 25.6875C14.818 25.6875 14.0625 26.443 14.0625 27.375C14.0625 28.307 14.818 29.0625 15.75 29.0625H38.25C39.182 29.0625 39.9375 28.307 39.9375 27.375C39.9375 26.443 39.182 25.6875 38.25 25.6875H15.75Z" fill="black"/>
<path fill-rule="evenodd" clip-rule="evenodd" d="M29.9131 37.3767C28.4748 36.151 26.3594 36.151 24.9211 37.3767C24.3047 37.9019 23.5384 38.2194 22.7312 38.2838C20.8474 38.4341 19.3516 39.9299 19.2013 41.8137C19.1369 42.6209 18.8194 43.3872 18.2942 44.0036C17.0685 45.4419 17.0685 47.5573 18.2942 48.9956C18.8194 49.612 19.1369 50.3783 19.2013 51.1855C19.3516 53.0692 20.8474 54.5651 22.7312 54.7154C23.5384 54.7798 24.3047 55.0973 24.9211 55.6225C26.3594 56.8482 28.4748 56.8482 29.9131 55.6225C30.5295 55.0973 31.2958 54.7798 32.103 54.7154C33.9868 54.5651 35.4826 53.0692 35.6329 51.1855C35.6973 50.3783 36.0148 49.612 36.54 48.9956C37.7657 47.5573 37.7657 45.4419 36.54 44.0036C36.0148 43.3872 35.6973 42.6209 35.6329 41.8137C35.4826 39.9299 33.9868 38.4341 32.103 38.2838C31.2958 38.2194 30.5295 37.9019 29.9131 37.3767ZM31.9439 45.4837C32.6253 44.8478 32.6621 43.7799 32.0262 43.0986C31.3903 42.4173 30.3224 42.3804 29.6411 43.0164L25.9711 46.4417L25.1939 45.7164C24.5126 45.0804 23.4448 45.1173 22.8089 45.7986C22.173 46.4799 22.2098 47.5478 22.8911 48.1837L24.8197 49.9837C25.468 50.5888 26.4742 50.5888 27.1225 49.9837L31.9439 45.4837Z" fill="#0CAC67"/>
<defs>
<filter id="filter0_b_3055_22642" x="-2" y="-19" width="104" height="103" filterUnits="userSpaceOnUse" color-interpolation-filters="sRGB">
<feFlood flood-opacity="0" result="BackgroundImageFix"/>
<feGaussianBlur in="BackgroundImageFix" stdDeviation="9.5"/>
<feComposite in2="SourceAlpha" operator="in" result="effect1_backgroundBlur_3055_22642"/>
<feBlend mode="normal" in="SourceGraphic" in2="effect1_backgroundBlur_3055_22642" result="shape"/>
</filter>
</defs>
</svg>
