<svg width="77" height="65" viewBox="0 0 77 65" fill="none" xmlns="http://www.w3.org/2000/svg">
<g style="mix-blend-mode:multiply" filter="url(#filter0_b_3055_22657)">
<path d="M77 10C77 4.47715 72.5228 0 67 0H43.5C25.5507 0 11 14.5507 11 32.5C11 50.4493 25.7988 65 43.7481 65C61.9735 65 77 50.2254 77 32V10Z" fill="#0CAC67" fill-opacity="0.21"/>
</g>
<path d="M31.7036 14.2035C31.1667 14.7404 31.1667 15.6047 31.1667 17.3332V41.1665C31.1667 42.895 31.1667 43.7592 31.7036 44.2962C32.2406 44.8332 33.1049 44.8332 34.8333 44.8332C36.5618 44.8332 37.4261 44.8332 37.963 44.2962C38.5 43.7592 38.5 42.895 38.5 41.1665V17.3332C38.5 15.6047 38.5 14.7404 37.963 14.2035C37.4261 13.6665 36.5618 13.6665 34.8333 13.6665C33.1049 13.6665 32.2406 13.6665 31.7036 14.2035Z" fill="#0CAC67"/>
<path d="M18.3333 22.8332C18.3333 21.1047 18.3333 20.2404 18.8703 19.7035C19.4073 19.1665 20.2715 19.1665 22 19.1665C23.7285 19.1665 24.5927 19.1665 25.1297 19.7035C25.6667 20.2404 25.6667 21.1047 25.6667 22.8332V41.1665C25.6667 42.895 25.6667 43.7592 25.1297 44.2962C24.5927 44.8332 23.7285 44.8332 22 44.8332C20.2715 44.8332 19.4073 44.8332 18.8703 44.2962C18.3333 43.7592 18.3333 42.895 18.3333 41.1665V22.8332Z" fill="#0CAC67"/>
<path d="M5.5 48.9582C4.74061 48.9582 4.125 49.5738 4.125 50.3332C4.125 51.0926 4.74061 51.7082 5.5 51.7082H38.5C39.2594 51.7082 39.875 51.0926 39.875 50.3332C39.875 49.5738 39.2594 48.9582 38.5 48.9582H5.5Z" fill="#0CAC67"/>
<path d="M7.53697 28.537C7 29.0739 7 29.9382 7 31.6667V42.6667C7 44.3951 7 45.2594 7.53697 45.7964C8.07394 46.3333 8.93818 46.3333 10.6667 46.3333C12.3952 46.3333 13.2594 46.3333 13.7964 45.7964C14.3333 45.2594 14.3333 44.3951 14.3333 42.6667V31.6667C14.3333 29.9382 14.3333 29.0739 13.7964 28.537C13.2594 28 12.3952 28 10.6667 28C8.93818 28 8.07394 28 7.53697 28.537Z" fill="#343434"/>
<defs>
<filter id="filter0_b_3055_22657" x="-8" y="-19" width="104" height="103" filterUnits="userSpaceOnUse" color-interpolation-filters="sRGB">
<feFlood flood-opacity="0" result="BackgroundImageFix"/>
<feGaussianBlur in="BackgroundImageFix" stdDeviation="9.5"/>
<feComposite in2="SourceAlpha" operator="in" result="effect1_backgroundBlur_3055_22657"/>
<feBlend mode="normal" in="SourceGraphic" in2="effect1_backgroundBlur_3055_22657" result="shape"/>
</filter>
</defs>
</svg>
