<svg width="96" height="65" viewBox="0 0 96 65" fill="none" xmlns="http://www.w3.org/2000/svg">
<g style="mix-blend-mode:multiply" filter="url(#filter0_b_3055_22664)">
<path d="M96 10C96 4.47715 91.5228 0 86 0H62.5C44.5507 0 30 14.5507 30 32.5C30 50.4493 44.7988 65 62.7481 65C80.9735 65 96 50.2254 96 32V10Z" fill="#0CAC67" fill-opacity="0.21"/>
</g>
<path fill-rule="evenodd" clip-rule="evenodd" d="M32.0002 12.6616C19.3276 12.6616 9.05443 22.771 9.05443 35.2415C9.05443 41.4773 11.6207 47.1198 15.7751 51.208C16.5016 51.9229 16.5016 53.0821 15.7751 53.7971C15.0485 54.5121 13.8705 54.5121 13.144 53.7971C8.3203 49.0503 5.3335 42.4874 5.3335 35.2415C5.3335 20.7487 17.2726 9 32.0002 9C46.7278 9 58.6668 20.7487 58.6668 35.2415C58.6668 42.4874 55.68 49.0503 50.8563 53.7971C50.1298 54.5121 48.9518 54.5121 48.2253 53.7971C47.4987 53.0821 47.4987 51.9229 48.2253 51.208C52.3797 47.1198 54.9459 41.4773 54.9459 35.2415C54.9459 22.771 44.6727 12.6616 32.0002 12.6616Z" fill="#282828"/>
<path fill-rule="evenodd" clip-rule="evenodd" d="M31.7442 22.6616C24.5516 22.6616 18.7209 28.3994 18.7209 35.4772C18.7209 39.0167 20.1766 42.2181 22.5354 44.5393C23.2619 45.2542 23.2619 46.4134 22.5354 47.1284C21.8088 47.8434 20.6308 47.8434 19.9043 47.1284C16.8762 44.1486 15 40.0268 15 35.4772C15 26.3771 22.4966 19 31.7442 19C40.9917 19 48.4884 26.3771 48.4884 35.4772C48.4884 40.0268 46.6122 44.1486 43.5841 47.1284C42.8576 47.8434 41.6796 47.8434 40.953 47.1284C40.2265 46.4134 40.2265 45.2542 40.953 44.5393C43.3118 42.2181 44.7674 39.0167 44.7674 35.4772C44.7674 28.3994 38.9367 22.6616 31.7442 22.6616Z" fill="#0CAC67"/>
<path d="M27.2372 47.4866C29.2839 45.1512 30.3073 43.9835 31.5707 43.9076C31.6863 43.9006 31.8021 43.9006 31.9176 43.9076C33.1811 43.9835 34.2045 45.1512 36.2512 47.4866C40.7045 52.5682 42.9311 55.109 42.3078 57.3011C42.2542 57.4895 42.1876 57.6728 42.1088 57.8493C41.1911 59.9024 38.0421 59.9024 31.7442 59.9024C25.4462 59.9024 22.2973 59.9024 21.3796 57.8493C21.3007 57.6728 21.2342 57.4895 21.1806 57.3011C20.5572 55.109 22.7839 52.5682 27.2372 47.4866Z" fill="#0CAC67"/>
<path d="M38.4109 34.569C38.4109 38.2509 35.4261 41.2357 31.7442 41.2357C28.0623 41.2357 25.0775 38.2509 25.0775 34.569C25.0775 30.8871 28.0623 27.9024 31.7442 27.9024C35.4261 27.9024 38.4109 30.8871 38.4109 34.569Z" fill="#0CAC67"/>
<defs>
<filter id="filter0_b_3055_22664" x="11" y="-19" width="104" height="103" filterUnits="userSpaceOnUse" color-interpolation-filters="sRGB">
<feFlood flood-opacity="0" result="BackgroundImageFix"/>
<feGaussianBlur in="BackgroundImageFix" stdDeviation="9.5"/>
<feComposite in2="SourceAlpha" operator="in" result="effect1_backgroundBlur_3055_22664"/>
<feBlend mode="normal" in="SourceGraphic" in2="effect1_backgroundBlur_3055_22664" result="shape"/>
</filter>
</defs>
</svg>
