<svg width="90" height="72" viewBox="0 0 90 72" fill="none" xmlns="http://www.w3.org/2000/svg">
<g clip-path="url(#clip0_3055_22705)">
<path d="M66.8359 35.9824C71.3749 35.9824 75.7973 35.9824 80.2173 35.9824C80.8698 35.9782 81.5216 36.0215 82.1667 36.112C86.0321 36.6984 89.0407 39.7339 89.0693 43.323C89.1407 50.4205 89.1407 57.5179 89.0693 64.6154C89.0193 68.5976 85.4395 71.8638 80.9933 71.9209C73.4227 72.0204 65.8497 72.0204 58.2743 71.9209C53.7638 71.8681 50.3625 68.646 50.1197 64.488C50.1055 64.242 50.1055 63.996 50.1055 63.7478C50.1055 51.1709 50.1055 38.5925 50.1055 26.0126C50.1055 19.4233 52.3667 13.5697 57.1508 8.66059C63.0871 2.55663 70.6109 -0.204327 79.4485 0.0109264C80.5358 0.0161564 81.5763 0.419604 82.3413 1.13257C83.1063 1.84554 83.5332 2.80967 83.5282 3.81301C83.5885 6.41655 83.5885 9.02008 83.5282 11.6236C83.4734 13.8706 81.655 15.474 79.1819 15.4059C75.8497 15.3159 72.8816 16.0473 70.4157 18.1713C68.1117 20.1481 66.8763 22.6147 66.8454 25.5294C66.8073 28.9779 66.8359 32.4263 66.8359 35.9824Z" fill="#0CAC67" fill-opacity="0.07"/>
<path d="M16.7352 35.9822H17.8039C21.993 35.9822 26.1798 35.9822 30.3665 35.9822C35.3649 35.9954 38.9781 39.2923 38.9971 43.8895C39.0273 50.6018 39.0273 57.315 38.9971 64.0288C38.9757 68.6238 35.3411 71.9361 30.3523 71.9361C23.1355 71.9522 15.9156 71.9522 8.69248 71.9361C3.5941 71.9361 0.0023802 68.604 0 63.9058C0 51.2191 0 38.5323 0 25.8455C0.0214218 13.4333 9.07807 3.07702 22.2334 0.544503C24.5351 0.105211 26.9486 0.045906 29.3121 0.00856611C31.6019 -0.0265773 33.3108 1.56585 33.3775 3.69203C33.4584 6.34828 33.4584 9.00527 33.3775 11.663C33.3085 13.899 31.5233 15.4431 29.0741 15.3838C26.0941 15.3113 23.345 15.8494 20.9814 17.6022C18.3156 19.579 16.7994 22.1467 16.7375 25.3228C16.6828 28.8503 16.7352 32.358 16.7352 35.9822Z" fill="#0CAC67" fill-opacity="0.07"/>
</g>
<defs>
<clipPath id="clip0_3055_22705">
<rect width="89.1431" height="72" fill="white"/>
</clipPath>
</defs>
</svg>
