<svg width="57" height="55" viewBox="0 0 57 55" fill="none" xmlns="http://www.w3.org/2000/svg">
<g id="Vector" filter="url(#filter0_d_3055_26454)">
<path d="M36.4668 33.0164L36.1575 34.7305C35.8818 36.2582 34.0251 36.9474 32.8144 35.9714L31.4559 34.8764C30.4023 34.0271 29.8755 33.6024 29.2435 33.494C28.6116 33.3856 27.9534 33.6171 26.637 34.0802C24.6935 34.7638 23.4384 35.0954 22.266 35.053C20.0908 34.9742 18.0361 34.0373 16.5538 32.4482C15.4421 31.2563 14.775 29.4699 13.4407 25.8971L12.868 24.3636C10.9933 19.3435 10.0559 16.8335 10.5007 14.5689C10.7496 13.3017 11.2958 12.1113 12.0945 11.0949C13.5221 9.27841 16.0397 8.34388 21.0751 6.47483L25.6898 4.76191C30.7251 2.89286 33.2428 1.95834 35.5142 2.40177C36.7853 2.64989 37.9793 3.19439 38.9988 3.99075C40.8208 5.41395 41.7581 7.92399 43.6329 12.9441L44.2056 14.4776C45.5398 18.0504 46.207 19.8368 46.1477 21.4633C46.0688 23.6319 45.129 25.6804 43.535 27.1582C42.676 27.9546 41.5089 28.5222 39.5902 29.2721C38.2905 29.7801 37.6407 30.0341 37.2337 30.5281C36.8268 31.0222 36.7068 31.6869 36.4668 33.0164Z" fill="#0CAC67"/>
</g>
<defs>
<filter id="filter0_d_3055_26454" x="0.391479" y="0.292816" width="55.7599" height="54.1311" filterUnits="userSpaceOnUse" color-interpolation-filters="sRGB">
<feFlood flood-opacity="0" result="BackgroundImageFix"/>
<feColorMatrix in="SourceAlpha" type="matrix" values="0 0 0 0 0 0 0 0 0 0 0 0 0 0 0 0 0 0 127 0" result="hardAlpha"/>
<feOffset dy="8"/>
<feGaussianBlur stdDeviation="5"/>
<feComposite in2="hardAlpha" operator="out"/>
<feColorMatrix type="matrix" values="0 0 0 0 0.0470588 0 0 0 0 0.67451 0 0 0 0 0.403922 0 0 0 0.1 0"/>
<feBlend mode="normal" in2="BackgroundImageFix" result="effect1_dropShadow_3055_26454"/>
<feBlend mode="normal" in="SourceGraphic" in2="effect1_dropShadow_3055_26454" result="shape"/>
</filter>
</defs>
</svg>
