<svg width="17" height="17" viewBox="0 0 17 17" fill="none" xmlns="http://www.w3.org/2000/svg">
<path d="M12.0417 9.91671C12.433 9.91671 12.7501 9.59958 12.7501 9.20837C12.7501 8.81717 12.433 8.50004 12.0417 8.50004C11.6505 8.50004 11.3334 8.81717 11.3334 9.20837C11.3334 9.59958 11.6505 9.91671 12.0417 9.91671Z" fill="#808080"/>
<path d="M12.0417 12.75C12.433 12.75 12.7501 12.4329 12.7501 12.0417C12.7501 11.6505 12.433 11.3334 12.0417 11.3334C11.6505 11.3334 11.3334 11.6505 11.3334 12.0417C11.3334 12.4329 11.6505 12.75 12.0417 12.75Z" fill="#808080"/>
<path d="M9.20842 9.20837C9.20842 9.59958 8.89128 9.91671 8.50008 9.91671C8.10888 9.91671 7.79175 9.59958 7.79175 9.20837C7.79175 8.81717 8.10888 8.50004 8.50008 8.50004C8.89128 8.50004 9.20842 8.81717 9.20842 9.20837Z" fill="#808080"/>
<path d="M9.20842 12.0417C9.20842 12.4329 8.89128 12.75 8.50008 12.75C8.10888 12.75 7.79175 12.4329 7.79175 12.0417C7.79175 11.6505 8.10888 11.3334 8.50008 11.3334C8.89128 11.3334 9.20842 11.6505 9.20842 12.0417Z" fill="#808080"/>
<path d="M4.95842 9.91671C5.34962 9.91671 5.66675 9.59958 5.66675 9.20837C5.66675 8.81717 5.34962 8.50004 4.95842 8.50004C4.56721 8.50004 4.25008 8.81717 4.25008 9.20837C4.25008 9.59958 4.56721 9.91671 4.95842 9.91671Z" fill="#808080"/>
<path d="M4.95842 12.75C5.34962 12.75 5.66675 12.4329 5.66675 12.0417C5.66675 11.6505 5.34962 11.3334 4.95842 11.3334C4.56721 11.3334 4.25008 11.6505 4.25008 12.0417C4.25008 12.4329 4.56721 12.75 4.95842 12.75Z" fill="#808080"/>
<path fill-rule="evenodd" clip-rule="evenodd" d="M4.95842 1.23962C5.25182 1.23962 5.48967 1.47747 5.48967 1.77087V2.31113C5.95858 2.30211 6.47519 2.30212 7.04336 2.30212H9.95671C10.5249 2.30212 11.0416 2.30211 11.5105 2.31113V1.77087C11.5105 1.47747 11.7483 1.23962 12.0417 1.23962C12.3351 1.23962 12.573 1.47747 12.573 1.77087V2.35673C12.7571 2.37077 12.9315 2.38841 13.0965 2.41059C13.9269 2.52225 14.5991 2.7575 15.1292 3.28759C15.6593 3.81768 15.8945 4.48985 16.0062 5.32032C16.1147 6.12725 16.1147 7.15832 16.1147 8.46005V9.95667C16.1147 11.2584 16.1147 12.2895 16.0062 13.0964C15.8945 13.9269 15.6593 14.5991 15.1292 15.1292C14.5991 15.6592 13.9269 15.8945 13.0965 16.0062C12.2895 16.1146 11.2585 16.1146 9.95674 16.1146H7.04346C5.74172 16.1146 4.71063 16.1146 3.90369 16.0062C3.07323 15.8945 2.40105 15.6592 1.87096 15.1292C1.34087 14.5991 1.10562 13.9269 0.993969 13.0964C0.885478 12.2895 0.885487 11.2584 0.885498 9.95667V8.46008C0.885487 7.15833 0.885478 6.12726 0.993969 5.32032C1.10562 4.48985 1.34087 3.81768 1.87096 3.28759C2.40105 2.7575 3.07323 2.52225 3.90369 2.41059C4.06868 2.38841 4.24304 2.37077 4.42717 2.35673V1.77087C4.42717 1.47747 4.66501 1.23962 4.95842 1.23962ZM4.04527 3.46362C3.33262 3.55943 2.92204 3.73911 2.62226 4.03889C2.32249 4.33866 2.14281 4.74925 2.04699 5.46189C2.03077 5.58258 2.0172 5.70964 2.00586 5.84379H14.9943C14.983 5.70964 14.9694 5.58258 14.9532 5.46189C14.8574 4.74925 14.6777 4.33866 14.3779 4.03889C14.0781 3.73911 13.6675 3.55943 12.9549 3.46362C12.227 3.36575 11.2674 3.36462 9.91675 3.36462H7.08342C5.73275 3.36462 4.7732 3.36575 4.04527 3.46362ZM1.948 8.50004C1.948 7.89511 1.94822 7.36864 1.95727 6.90629H15.0429C15.0519 7.36864 15.0522 7.89511 15.0522 8.50004V9.91671C15.0522 11.2674 15.051 12.2269 14.9532 12.9549C14.8574 13.6675 14.6777 14.0781 14.3779 14.3779C14.0781 14.6776 13.6675 14.8573 12.9549 14.9531C12.227 15.051 11.2674 15.0521 9.91675 15.0521H7.08342C5.73275 15.0521 4.77319 15.051 4.04527 14.9531C3.33262 14.8573 2.92204 14.6776 2.62226 14.3779C2.32249 14.0781 2.14281 13.6675 2.04699 12.9549C1.94913 12.2269 1.948 11.2674 1.948 9.91671V8.50004Z" fill="#808080"/>
</svg>
