<svg width="18" height="19" viewBox="0 0 18 19" fill="none" xmlns="http://www.w3.org/2000/svg">
<path fill-rule="evenodd" clip-rule="evenodd" d="M9.03703 1.4375H8.96297C8.46434 1.43747 8.03467 1.43745 7.69062 1.48371C7.32189 1.53328 6.96844 1.64508 6.68176 1.93176C6.39507 2.21845 6.28328 2.57189 6.2337 2.94062C6.18745 3.28468 6.18747 3.71433 6.1875 4.21297L6.1875 6.03353C6.01156 5.97134 5.82223 5.9375 5.625 5.9375H3.375C2.44302 5.9375 1.6875 6.69302 1.6875 7.625V16.4375H1.5C1.18934 16.4375 0.9375 16.6893 0.9375 17C0.9375 17.3107 1.18934 17.5625 1.5 17.5625H16.5C16.8107 17.5625 17.0625 17.3107 17.0625 17C17.0625 16.6893 16.8107 16.4375 16.5 16.4375H16.3125V11.375C16.3125 10.443 15.557 9.6875 14.625 9.6875H12.375C12.1778 9.6875 11.9884 9.72134 11.8125 9.78353L11.8125 4.21298C11.8125 3.71433 11.8126 3.28468 11.7663 2.94062C11.7167 2.57189 11.6049 2.21845 11.3182 1.93176C11.0316 1.64508 10.6781 1.53328 10.3094 1.48371C9.96533 1.43745 9.53566 1.43747 9.03703 1.4375ZM15.1875 16.4375V11.375C15.1875 11.0643 14.9357 10.8125 14.625 10.8125H12.375C12.0643 10.8125 11.8125 11.0643 11.8125 11.375V16.4375H15.1875ZM10.6875 16.4375V4.25C10.6875 3.70377 10.6863 3.35068 10.6513 3.09052C10.6185 2.84655 10.5656 2.77008 10.5227 2.72726C10.4799 2.68444 10.4035 2.63148 10.1595 2.59868C9.89932 2.5637 9.54623 2.5625 9 2.5625C8.45377 2.5625 8.10068 2.5637 7.84052 2.59868C7.59654 2.63148 7.52007 2.68444 7.47725 2.72726C7.43443 2.77008 7.38147 2.84655 7.34867 3.09052C7.31369 3.35068 7.3125 3.70377 7.3125 4.25V16.4375H10.6875ZM6.1875 16.4375V7.625C6.1875 7.31434 5.93566 7.0625 5.625 7.0625H3.375C3.06434 7.0625 2.8125 7.31434 2.8125 7.625V16.4375H6.1875Z" fill="#0CAC67"/>
</svg>
