<svg width="79" height="78" viewBox="0 0 79 78" fill="none" xmlns="http://www.w3.org/2000/svg">
<path d="M79 39C79 17.4609 61.2907 0 39.7516 0C17.9363 0 0 17.6848 0 39.5V68C0 73.5229 4.47715 78 10 78H40C61.5391 78 79 60.5391 79 39Z" fill="#2B2B2B"/>
<circle cx="35.7514" cy="33.4999" r="5.66667" fill="#4F4F4F"/>
<ellipse cx="35.7514" cy="49.0846" rx="9.91667" ry="5.66667" fill="#4F4F4F"/>
<path d="M52.7494 49.0839C52.7494 51.4311 49.8657 53.3339 46.3449 53.3339C47.3822 52.2001 48.0955 50.7769 48.0955 49.0859C48.0955 47.3929 47.3806 45.9684 46.3413 44.834C49.8621 44.834 52.7494 46.7367 52.7494 49.0839Z" fill="#4F4F4F"/>
<path d="M48.4994 33.501C48.4994 35.8482 46.5966 37.751 44.2494 37.751C43.7376 37.751 43.2469 37.6605 42.7925 37.4947C43.4627 36.3159 43.8455 34.9523 43.8455 33.4994C43.8455 32.0475 43.4633 30.6849 42.794 29.5067C43.248 29.3413 43.7382 29.251 44.2494 29.251C46.5966 29.251 48.4994 31.1538 48.4994 33.501Z" fill="#4F4F4F"/>
</svg>
